<?xml version="1.0" encoding="UTF-8" standalone="no"?>
<!-- Created with Inkscape (http://www.inkscape.org/) -->

<svg
   width="256"
   height="256"
   viewBox="0 0 67.733332 67.733335"
   version="1.1"
   id="svg5"
   inkscape:version="1.1.2 (08b2f3d93c, 2022-04-05)"
   sodipodi:docname="favicon.svg"
   xmlns:inkscape="http://www.inkscape.org/namespaces/inkscape"
   xmlns:sodipodi="http://sodipodi.sourceforge.net/DTD/sodipodi-0.dtd"
   xmlns="http://www.w3.org/2000/svg"
   xmlns:svg="http://www.w3.org/2000/svg">
  <sodipodi:namedview
     id="namedview7"
     pagecolor="#505050"
     bordercolor="#ffffff"
     borderopacity="1"
     inkscape:pageshadow="0"
     inkscape:pageopacity="0"
     inkscape:pagecheckerboard="1"
     inkscape:document-units="mm"
     showgrid="false"
     units="px"
     width="256px"
     inkscape:snap-global="false"
     inkscape:zoom="1.6503762"
     inkscape:cx="-94.826864"
     inkscape:cy="48.776758"
     inkscape:window-width="1920"
     inkscape:window-height="1004"
     inkscape:window-x="1920"
     inkscape:window-y="26"
     inkscape:window-maximized="1"
     inkscape:current-layer="g4261" />
  <defs
     id="defs2" />
  <g
     inkscape:label="Ebene 1"
     inkscape:groupmode="layer"
     id="layer1"
     style="display:inline">
    <g
       id="g3595" />
    <g
       inkscape:groupmode="layer"
       id="layer2"
       inkscape:label="Layer 1"
       style="display:inline">
      <g
         id="g4261"
         transform="translate(-0.169538,-0.03294255)"
         style="stroke-width:1;stroke-miterlimit:4;stroke-dasharray:none">
        <path
           id="path2600"
           style="fill:#3a4f50;fill-opacity:1;stroke-width:1;paint-order:markers fill stroke;stroke-miterlimit:4;stroke-dasharray:none"
           d="M 34.012731,53.738426 A 18.723295,18.127962 1.5171694 0 1 17.026709,34.043515 18.723295,18.127962 1.5171694 0 1 37.338445,17.630491 18.723295,18.127962 1.5171694 0 1 54.324502,37.325372 18.723295,18.127962 1.5171694 0 1 34.012796,53.738431 l 1.662805,-18.053972 z" />
        <path
           id="path3301"
           style="fill:#3a4f50;fill-opacity:1;stroke-width:1;paint-order:markers fill stroke;stroke-miterlimit:4;stroke-dasharray:none"
           d="m 30.376982,19.518151 a 3.573643,3.5212464 0 0 1 -3.568425,-3.526377 3.573643,3.5212464 0 0 1 3.578847,-3.516109 3.573643,3.5212464 0 0 1 3.568432,3.526372 3.573643,3.5212464 0 0 1 -3.578841,3.516114 l 0.0052,-3.521243 z" />
        <path
           id="path3405"
           style="fill:#3a4f50;fill-opacity:1;stroke-width:1;paint-order:markers fill stroke;stroke-miterlimit:4;stroke-dasharray:none"
           d="m 41.380129,19.378582 a 4.4827008,3.8565152 0 0 1 -4.476156,-3.862135 4.4827008,3.8565152 0 0 1 4.489229,-3.850887 4.4827008,3.8565152 0 0 1 4.476163,3.862128 4.4827008,3.8565152 0 0 1 -4.489221,3.850894 l 0.0065,-3.856511 z" />
        <path
           id="path3509"
           style="fill:#3a4f50;fill-opacity:1;stroke-width:1;paint-order:markers fill stroke;stroke-miterlimit:4;stroke-dasharray:none"
           d="m 36.413694,18.759062 a 5.091773,5.4723849 0 0 1 -5.084338,-5.480359 5.091773,5.4723849 0 0 1 5.099188,-5.464399 5.091773,5.4723849 0 0 1 5.084347,5.480349 5.091773,5.4723849 0 0 1 -5.099179,5.464409 l 0.0074,-5.472379 z" />
        <path
           style="fill:#3a4f50;fill-opacity:1;stroke-width:1.02538527;paint-order:markers fill stroke;stroke-miterlimit:4;stroke-dasharray:none"
           id="path3951"
           sodipodi:type="arc"
           sodipodi:cx="19.765865"
           sodipodi:cy="34.430183"
           sodipodi:rx="3.7993481"
           sodipodi:ry="2.2551229"
           sodipodi:start="1.5722554"
           sodipodi:end="1.5722519"
           sodipodi:arc-type="slice"
           transform="matrix(0.93863959,0.34489959,-0.03810171,0.99927386,0,0)"
           d="m 19.760322,36.685304 a 3.7993481,2.2551229 0 0 1 -3.793801,-2.258409 3.7993481,2.2551229 0 0 1 3.804881,-2.251832 3.7993481,2.2551229 0 0 1 3.793807,2.258405 3.7993481,2.2551229 0 0 1 -3.804874,2.251836 l 0.0055,-2.255121 z" />
        <path
           style="fill:#3a4f50;fill-opacity:1;stroke-width:1.00040706;paint-order:markers fill stroke;stroke-miterlimit:4;stroke-dasharray:none"
           id="path3825"
           sodipodi:type="arc"
           sodipodi:cx="-20.095554"
           sodipodi:cy="59.422203"
           sodipodi:rx="6.5917501"
           sodipodi:ry="2.6769087"
           sodipodi:start="1.5722554"
           sodipodi:end="1.5722519"
           sodipodi:arc-type="slice"
           transform="matrix(0.69062028,-0.72321755,0.75048226,0.66089059,0,0)"
           d="m -20.105172,62.099109 a 6.5917501,2.6769087 0 0 1 -6.582125,-2.680809 6.5917501,2.6769087 0 0 1 6.601349,-2.673003 6.5917501,2.6769087 0 0 1 6.582137,2.680805 6.5917501,2.6769087 0 0 1 -6.601338,2.673007 l 0.0096,-2.676906 z" />
        <path
           style="fill:#3a4f50;fill-opacity:1;stroke-width:1.02771689;paint-order:markers fill stroke;stroke-miterlimit:4;stroke-dasharray:none"
           id="path3825-3"
           sodipodi:type="arc"
           sodipodi:cx="71.776527"
           sodipodi:cy="-10.323381"
           sodipodi:rx="5.0904946"
           sodipodi:ry="3.6582029"
           sodipodi:start="1.5722554"
           sodipodi:end="1.5722519"
           sodipodi:arc-type="slice"
           transform="matrix(0.49213212,0.87052052,-0.66580316,0.74612744,0,0)"
           d="m 71.7691,-6.6651824 a 5.0904946,3.6582029 0 0 1 -5.083062,-3.6635336 5.0904946,3.6582029 0 0 1 5.097908,-3.652864 5.0904946,3.6582029 0 0 1 5.083071,3.663527 5.0904946,3.6582029 0 0 1 -5.097899,3.6528706 l 0.0074,-3.6581986 z" />
      </g>
      <circle
         id="path13524"
         style="fill:#0ef6cc;stroke:#1b2223;stroke-width:0.264583"
         cx="62.33828"
         cy="46.508347"
         r="0.0075498023" />
      <circle
         id="path13526"
         style="fill:#0ef6cc;stroke:#1b2223;stroke-width:0.264583"
         cx="62.33828"
         cy="46.508347"
         r="0.0075498023" />
    </g>
  </g>
</svg>
